<?xml version="1.0" encoding="UTF-8" standalone="no"?>
<!DOCTYPE svg PUBLIC "-//W3C//DTD SVG 1.1//EN"
 "http://www.w3.org/Graphics/SVG/1.1/DTD/svg11.dtd">
<!-- Generated by graphviz version 2.40.1 (20161225.0304)
 -->
<!-- Title: dependencies Pages: 1 -->
<svg width="550pt" height="284pt"
 viewBox="0.00 0.00 550.00 284.00" xmlns="http://www.w3.org/2000/svg" xmlns:xlink="http://www.w3.org/1999/xlink">
<g id="graph0" class="graph" transform="scale(1 1) rotate(0) translate(4 280)">
<title>dependencies</title>
<polygon fill="#ffffff" stroke="transparent" points="-4,4 -4,-280 546,-280 546,4 -4,4"/>
<text text-anchor="start" x="250.0091" y="-42.4" font-family="sans-serif" font-weight="bold" font-size="14.00" fill="#000000">Legend</text>
<polygon fill="#ffffb3" stroke="transparent" points="37,-10 37,-30 57,-30 57,-10 37,-10"/>
<text text-anchor="start" x="60.629" y="-15.4" font-family="sans-serif" font-size="14.00" fill="#000000"> &#160;Declarations</text>
<polygon fill="#8dd3c7" stroke="transparent" points="150,-10 150,-30 170,-30 170,-10 150,-10"/>
<text text-anchor="start" x="173.7251" y="-15.4" font-family="sans-serif" font-size="14.00" fill="#000000"> &#160;Module</text>
<polygon fill="#80b1d3" stroke="transparent" points="236,-10 236,-30 256,-30 256,-10 236,-10"/>
<text text-anchor="start" x="259.7812" y="-15.4" font-family="sans-serif" font-size="14.00" fill="#000000"> &#160;Bootstrap</text>
<polygon fill="#fdb462" stroke="transparent" points="333,-10 333,-30 353,-30 353,-10 333,-10"/>
<text text-anchor="start" x="356.6732" y="-15.4" font-family="sans-serif" font-size="14.00" fill="#000000"> &#160;Providers</text>
<polygon fill="#fb8072" stroke="transparent" points="429,-10 429,-30 449,-30 449,-10 429,-10"/>
<text text-anchor="start" x="452.7258" y="-15.4" font-family="sans-serif" font-size="14.00" fill="#000000"> &#160;Exports</text>
<g id="clust1" class="cluster">
<title>cluster_D3TooltipModule</title>
<polygon fill="none" stroke="#000000" stroke-dasharray="1,5" points="8,-70 8,-268 534,-268 534,-70 8,-70"/>
</g>
<g id="clust2" class="cluster">
<title>cluster_D3TooltipModule_declarations</title>
<polygon fill="none" stroke="#000000" points="200,-78 200,-130 526,-130 526,-78 200,-78"/>
</g>
<g id="clust6" class="cluster">
<title>cluster_D3TooltipModule_exports</title>
<polygon fill="none" stroke="#000000" points="204,-208 204,-260 364,-260 364,-208 204,-208"/>
</g>
<g id="clust8" class="cluster">
<title>cluster_D3TooltipModule_providers</title>
<polygon fill="none" stroke="#000000" points="16,-78 16,-130 192,-130 192,-78 16,-78"/>
</g>
<!-- D3TooltipComponent -->
<g id="node1" class="node">
<title>D3TooltipComponent</title>
<polygon fill="#ffffb3" stroke="#000000" points="517.6638,-122 378.3362,-122 378.3362,-86 517.6638,-86 517.6638,-122"/>
<text text-anchor="middle" x="448" y="-99.8" font-family="Times,serif" font-size="14.00" fill="#000000">D3TooltipComponent</text>
</g>
<!-- D3TooltipModule -->
<g id="node3" class="node">
<title>D3TooltipModule</title>
<polygon fill="#8dd3c7" stroke="#000000" points="342.8809,-187 339.8809,-191 318.8809,-191 315.8809,-187 225.1191,-187 225.1191,-151 342.8809,-151 342.8809,-187"/>
<text text-anchor="middle" x="284" y="-164.8" font-family="Times,serif" font-size="14.00" fill="#000000">D3TooltipModule</text>
</g>
<!-- D3TooltipComponent&#45;&gt;D3TooltipModule -->
<g id="edge1" class="edge">
<title>D3TooltipComponent&#45;&gt;D3TooltipModule</title>
<path fill="none" stroke="#000000" d="M448,-122.1061C448,-141.3391 448,-169 448,-169 448,-169 353.2078,-169 353.2078,-169"/>
<polygon fill="#000000" stroke="#000000" points="353.2078,-165.5001 343.2078,-169 353.2077,-172.5001 353.2078,-165.5001"/>
</g>
<!-- D3TooltipHostDirective -->
<g id="node2" class="node">
<title>D3TooltipHostDirective</title>
<polygon fill="#ffffb3" stroke="#000000" points="360.3557,-122 207.6443,-122 207.6443,-86 360.3557,-86 360.3557,-122"/>
<text text-anchor="middle" x="284" y="-99.8" font-family="Times,serif" font-size="14.00" fill="#000000">D3TooltipHostDirective</text>
</g>
<!-- D3TooltipHostDirective&#45;&gt;D3TooltipModule -->
<g id="edge2" class="edge">
<title>D3TooltipHostDirective&#45;&gt;D3TooltipModule</title>
<path fill="none" stroke="#000000" d="M284,-122.1061C284,-122.1061 284,-140.991 284,-140.991"/>
<polygon fill="#000000" stroke="#000000" points="280.5001,-140.9909 284,-150.991 287.5001,-140.991 280.5001,-140.9909"/>
</g>
<!-- D3TooltipComponent  -->
<g id="node4" class="node">
<title>D3TooltipComponent </title>
<polygon fill="#fb8072" stroke="#000000" points="355.6635,-252 212.3365,-252 212.3365,-216 355.6635,-216 355.6635,-252"/>
<text text-anchor="middle" x="284" y="-229.8" font-family="Times,serif" font-size="14.00" fill="#000000">D3TooltipComponent </text>
</g>
<!-- D3TooltipModule&#45;&gt;D3TooltipComponent  -->
<g id="edge3" class="edge">
<title>D3TooltipModule&#45;&gt;D3TooltipComponent </title>
<path fill="none" stroke="#000000" stroke-dasharray="5,2" d="M284,-187.1061C284,-187.1061 284,-205.991 284,-205.991"/>
<polygon fill="#000000" stroke="#000000" points="280.5001,-205.9909 284,-215.991 287.5001,-205.991 280.5001,-205.9909"/>
</g>
<!-- D3TooltipService -->
<g id="node5" class="node">
<title>D3TooltipService</title>
<ellipse fill="#fdb462" stroke="#000000" cx="104" cy="-104" rx="80.4557" ry="18"/>
<text text-anchor="middle" x="104" y="-99.8" font-family="Times,serif" font-size="14.00" fill="#000000">D3TooltipService</text>
</g>
<!-- D3TooltipService&#45;&gt;D3TooltipModule -->
<g id="edge4" class="edge">
<title>D3TooltipService&#45;&gt;D3TooltipModule</title>
<path fill="none" stroke="#000000" d="M104,-122.1061C104,-141.3391 104,-169 104,-169 104,-169 215.0613,-169 215.0613,-169"/>
<polygon fill="#000000" stroke="#000000" points="215.0613,-172.5001 225.0613,-169 215.0612,-165.5001 215.0613,-172.5001"/>
</g>
</g>
</svg>
